<?xml version="1.0" standalone="no"?>
<!DOCTYPE svg PUBLIC "-//W3C//DTD SVG 20010904//EN"
 "http://www.w3.org/TR/2001/REC-SVG-20010904/DTD/svg10.dtd">
<svg version="1.0" xmlns="http://www.w3.org/2000/svg"
 width="650.000000pt" height="724.000000pt" viewBox="0 0 650.000000 724.000000"
 preserveAspectRatio="xMidYMid meet">

<g transform="translate(0.000000,724.000000) scale(0.100000,-0.100000)"
fill="#000000" stroke="none">
<path d="M0 6937 l0 -302 179 -228 c212 -270 448 -549 690 -817 199 -219 659
-700 671 -700 5 0 39 39 76 88 93 118 267 291 391 385 322 245 701 402 1086
452 136 17 432 20 557 5 1014 -123 1817 -897 1976 -1906 22 -140 29 -416 15
-555 -40 -386 -168 -736 -395 -1081 l-18 -27 89 -44 c240 -121 854 -387 1091
-473 l92 -34 0 2770 0 2770 -3250 0 -3250 0 0 -303z"/>
<path d="M0 3062 l0 -3062 3250 0 3250 0 -2 682 -3 682 -190 71 c-357 135
-709 287 -1104 476 l-183 89 -87 -81 c-331 -311 -742 -509 -1216 -585 -151
-25 -495 -25 -650 -1 -477 76 -899 282 -1235 603 -351 336 -574 749 -666 1233
-36 186 -44 486 -20 678 29 228 101 481 190 668 l42 89 -224 225 c-354 358
-782 836 -1071 1196 -36 44 -68 84 -73 90 -4 5 -8 -1369 -8 -3053z"/>
<path d="M3185 5509 c-450 -47 -885 -261 -1200 -591 -89 -92 -206 -239 -204
-255 0 -4 51 -54 112 -110 757 -690 1478 -1234 2297 -1733 225 -137 728 -420
747 -420 16 0 140 197 198 315 495 1011 31 2233 -1010 2658 -296 121 -625 169
-940 136z"/>
<path d="M1572 4268 c-160 -418 -171 -875 -31 -1302 232 -707 837 -1212 1580
-1320 139 -21 400 -21 538 0 292 43 565 146 805 305 92 61 262 197 254 204 -2
1 -64 35 -138 75 -920 496 -1894 1188 -2743 1949 -114 102 -212 187 -217 189
-4 2 -26 -43 -48 -100z"/>
</g>
</svg>
